# Blender v2.83.0 OBJ File: ''
# www.blender.org
o 平面
v -1.000000 0.000000 1.000000
v 1.000000 0.000000 1.000000
v -1.000000 0.000000 -1.000000
v 1.000000 0.000000 -1.000000
vt 0.000000 0.000000
vt 1.000000 0.000000
vt 1.000000 1.000000
vt 0.000000 1.000000
vn 0.0000 1.0000 0.0000
s off
f 1/1/1 2/2/1 4/3/1 3/4/1
o 平面.001
v 1.000000 -0.000000 1.000000
v -1.000000 0.000000 1.000000
v 1.000000 -0.000000 -1.000000
v -1.000000 0.000000 -1.000000
v 1.000000 -0.000000 -1.000000
v -1.000000 0.000000 -1.000000
v 1.000000 -0.000000 1.000000
v -1.000000 0.000000 1.000000
vt 0.000000 0.000000
vt 1.000000 0.000000
vt 1.000000 1.000000
vt 0.000000 1.000000
vt 0.000000 0.000000
vt 0.000000 1.000000
vt 1.000000 1.000000
vt 1.000000 0.000000
vn -0.0000 -1.0000 0.0000
s off
f 5/5/2 6/6/2 8/7/2 7/8/2
f 9/9/2 11/10/2 12/11/2 10/12/2
